<svg width="192" height="82" viewBox="0 0 192 82" fill="none" xmlns="http://www.w3.org/2000/svg">
<path d="M0 22.3271C0 20.7354 0.194511 19.1496 0.579208 17.6051C3.05166 7.67833 12.7628 1.33952 22.8452 3.07129L93.887 15.2736C109.551 17.9641 121 31.5469 121 47.4406V51.4417C121 61.5902 115.753 71.0173 107.128 76.3654C101.259 80.0046 94.2939 81.4559 87.4597 80.4635L27.948 71.8221C11.9024 69.4922 0 55.7366 0 39.5228V22.3271Z" fill="#A97DFF"/>
<path d="M38.8948 27.8695V53.4985H33.7543V36.8286L26.888 53.4985H22.9959L16.093 36.8286V53.4985H10.9525V27.8695H16.7906L24.942 46.926L33.0933 27.8695H38.8948ZM46.584 30.7335C45.6783 30.7335 44.9194 30.452 44.3075 29.889C43.72 29.3015 43.4262 28.5794 43.4262 27.7226C43.4262 26.8659 43.72 26.156 44.3075 25.593C44.9194 25.0055 45.6783 24.7117 46.584 24.7117C47.4897 24.7117 48.2363 25.0055 48.8238 25.593C49.4357 26.156 49.7417 26.8659 49.7417 27.7226C49.7417 28.5794 49.4357 29.3015 48.8238 29.889C48.2363 30.452 47.4897 30.7335 46.584 30.7335ZM49.1175 33.1569V53.4985H43.977V33.1569H49.1175ZM52.8745 43.3277C52.8745 41.2225 53.3029 39.3866 54.1596 37.82C55.0164 36.2289 56.2036 35.005 57.7212 34.1482C59.2389 33.267 60.9769 32.8264 62.9352 32.8264C65.4565 32.8264 67.5372 33.4628 69.1772 34.7357C70.8418 35.9841 71.9555 37.7466 72.5185 40.0231H66.9741C66.6804 39.1419 66.1786 38.4565 65.4687 37.9669C64.7833 37.4528 63.9266 37.1958 62.8985 37.1958C61.4297 37.1958 60.267 37.7343 59.4103 38.8114C58.5535 39.864 58.1251 41.3694 58.1251 43.3277C58.1251 45.2615 58.5535 46.7669 59.4103 47.844C60.267 48.8966 61.4297 49.4229 62.8985 49.4229C64.9791 49.4229 66.3377 48.4927 66.9741 46.6323H72.5185C71.9555 48.8354 70.8418 50.5856 69.1772 51.883C67.5127 53.1803 65.432 53.829 62.9352 53.829C60.9769 53.829 59.2389 53.4006 57.7212 52.5439C56.2036 51.6626 55.0164 50.4387 54.1596 48.8721C53.3029 47.281 52.8745 45.4328 52.8745 43.3277ZM81.4249 36.3146C82.0858 35.2375 82.9426 34.393 83.9952 33.7811C85.0722 33.1691 86.2961 32.8631 87.6669 32.8631V38.2606H86.3084C84.6928 38.2606 83.4689 38.64 82.6366 39.3989C81.8288 40.1577 81.4249 41.4796 81.4249 43.3644V53.4985H76.2844V33.1569H81.4249V36.3146ZM100.162 53.829C98.2036 53.829 96.4412 53.4006 94.8745 52.5439C93.3079 51.6626 92.0717 50.4265 91.166 48.8354C90.2848 47.2443 89.8442 45.4084 89.8442 43.3277C89.8442 41.247 90.297 39.4111 91.2028 37.82C92.1329 36.2289 93.3936 35.005 94.9847 34.1482C96.5758 33.267 98.3505 32.8264 100.309 32.8264C102.267 32.8264 104.042 33.267 105.633 34.1482C107.224 35.005 108.472 36.2289 109.378 37.82C110.308 39.4111 110.773 41.247 110.773 43.3277C110.773 45.4084 110.296 47.2443 109.341 48.8354C108.411 50.4265 107.138 51.6626 105.523 52.5439C103.932 53.4006 102.145 53.829 100.162 53.829ZM100.162 49.3494C101.092 49.3494 101.961 49.1291 102.769 48.6885C103.601 48.2234 104.262 47.538 104.752 46.6323C105.241 45.7266 105.486 44.6251 105.486 43.3277C105.486 41.3939 104.972 39.9129 103.944 38.8848C102.94 37.8323 101.704 37.306 100.235 37.306C98.7666 37.306 97.5305 37.8323 96.5268 38.8848C95.5477 39.9129 95.0581 41.3939 95.0581 43.3277C95.0581 45.2615 95.5355 46.7547 96.4901 47.8073C97.4693 48.8354 98.6932 49.3494 100.162 49.3494Z" fill="black"/>
<path d="M149.952 36.384C149.952 37.5147 149.685 38.5813 149.152 39.584C148.619 40.5867 147.765 41.408 146.592 42.048C145.419 42.6667 143.915 42.976 142.08 42.976H138.048V52H134.4V29.76H142.08C143.787 29.76 145.227 30.0587 146.4 30.656C147.595 31.232 148.48 32.0213 149.056 33.024C149.653 34.0267 149.952 35.1467 149.952 36.384ZM142.08 40C143.467 40 144.501 39.6907 145.184 39.072C145.867 38.432 146.208 37.536 146.208 36.384C146.208 33.952 144.832 32.736 142.08 32.736H138.048V40H142.08ZM152.215 43.104C152.215 41.3333 152.578 39.7653 153.303 38.4C154.05 37.0347 155.053 35.9787 156.311 35.232C157.591 34.464 158.999 34.08 160.535 34.08C161.922 34.08 163.127 34.3573 164.151 34.912C165.197 35.4453 166.029 36.1173 166.647 36.928V34.368H170.327V52H166.647V49.376C166.029 50.208 165.186 50.9013 164.119 51.456C163.053 52.0107 161.837 52.288 160.471 52.288C158.957 52.288 157.57 51.904 156.311 51.136C155.053 50.3467 154.05 49.2587 153.303 47.872C152.578 46.464 152.215 44.8747 152.215 43.104ZM166.647 43.168C166.647 41.952 166.391 40.896 165.879 40C165.389 39.104 164.738 38.4213 163.927 37.952C163.117 37.4827 162.242 37.248 161.303 37.248C160.365 37.248 159.49 37.4827 158.679 37.952C157.869 38.4 157.207 39.072 156.695 39.968C156.205 40.8427 155.959 41.888 155.959 43.104C155.959 44.32 156.205 45.3867 156.695 46.304C157.207 47.2213 157.869 47.9253 158.679 48.416C159.511 48.8853 160.386 49.12 161.303 49.12C162.242 49.12 163.117 48.8853 163.927 48.416C164.738 47.9467 165.389 47.264 165.879 46.368C166.391 45.4507 166.647 44.384 166.647 43.168ZM190.991 34.368L180.175 60.288H176.399L179.983 51.712L173.039 34.368H177.103L182.063 47.808L187.215 34.368H190.991Z" fill="black"/>
</svg>
