<svg width="100" height="100" viewBox="0 0 100 100" fill="none" xmlns="http://www.w3.org/2000/svg">
<path d="M37 1.70669C34.2311 2.45021 31.557 3.42552 29 4.61055V75C29 79.4183 32.5817 83 37 83H87.5641C89.7303 80.5362 91.6579 77.8575 93.3109 75H37V1.70669Z" fill="white"/>
<path d="M95.3895 71C98.3486 64.6149 100 57.5003 100 50C100 22.3858 77.6142 0 50 0C46.9274 0 43.9195 0.277153 41 0.807825V8.4548C43.9009 7.82933 46.912 7.5 50 7.5C73.4721 7.5 92.5 26.5279 92.5 50C92.5 57.6381 90.4851 64.8056 86.9577 71H95.3895Z" fill="white"/>
<path d="M83.6309 87H70.9256C64.7483 90.5012 57.6076 92.5 50 92.5C26.5279 92.5 7.5 73.4721 7.5 50C7.5 35.8723 14.3933 23.3547 25 15.627V6.68911C10.055 15.3343 0 31.4929 0 50C0 77.6142 22.3858 100 50 100C62.95 100 74.7501 95.0768 83.6309 87Z" fill="white"/>
</svg>