<svg width="100" height="100" viewBox="0 0 100 100" fill="none" xmlns="http://www.w3.org/2000/svg">
<rect width="100" height="100" fill="black"/>
<rect width="100" height="100" fill="url(#paint0_radial_104_14)"/>
<rect width="100" height="100" fill="url(#paint1_radial_104_14)"/>
<path d="M39.6 11.3654C37.3848 11.9602 35.2456 12.7404 33.2 13.6884V70C33.2 73.5346 36.0654 76.4 39.6 76.4H80.0513C81.7843 74.4289 83.3263 72.286 84.6487 70H39.6V11.3654Z" fill="white"/>
<path d="M86.3116 66.8C88.6788 61.6919 90 56.0002 90 50C90 27.9086 72.0914 10 50 10C47.5419 10 45.1356 10.2217 42.8 10.6463V16.7638C45.1208 16.2635 47.5296 16 50 16C68.7777 16 84 31.2223 84 50C84 56.1105 82.3881 61.8445 79.5662 66.8H86.3116Z" fill="white"/>
<path d="M76.9047 79.6H66.7405C61.7986 82.4009 56.0861 84 50 84C31.2223 84 16 68.7777 16 50C16 38.6979 21.5147 28.6837 30 22.5016V15.3513C18.044 22.2675 10 35.1944 10 50C10 72.0914 27.9086 90 50 90C60.36 90 69.8001 86.0615 76.9047 79.6Z" fill="white"/>
<defs>
<radialGradient id="paint0_radial_104_14" cx="0" cy="0" r="1" gradientUnits="userSpaceOnUse" gradientTransform="translate(4.634e-06 100) rotate(-46.1655) scale(104.935 176.536)">
<stop stop-color="#001AFF" stop-opacity="0.22"/>
<stop offset="0.96875" stop-color="#001AFF" stop-opacity="0"/>
</radialGradient>
<radialGradient id="paint1_radial_104_14" cx="0" cy="0" r="1" gradientUnits="userSpaceOnUse" gradientTransform="translate(100) rotate(135.879) scale(93.5661 197.74)">
<stop stop-color="#DB00FF" stop-opacity="0.28"/>
<stop offset="1" stop-color="#DB00FF" stop-opacity="0"/>
</radialGradient>
</defs>
</svg>