<svg width="280" height="280" viewBox="0 0 280 280" fill="none" xmlns="http://www.w3.org/2000/svg">
<rect width="280" height="280" fill="#EADCF5"/>
<path d="M44 121.327C44 119.735 44.1945 118.15 44.5792 116.605C47.0517 106.678 56.7628 100.34 66.8452 102.071L137.887 114.274C153.551 116.964 165 130.547 165 146.441V150.442C165 160.59 159.753 170.017 151.128 175.365C145.259 179.005 138.294 180.456 131.46 179.464L71.948 170.822C55.9024 168.492 44 154.737 44 138.523V121.327Z" fill="#A97DFF"/>
<path d="M82.8949 126.869V152.498H77.7544V135.829L70.8881 152.498H66.996L60.0931 135.829V152.498H54.9526V126.869H60.7907L68.9421 145.926L77.0934 126.869H82.8949ZM90.5841 129.733C89.6784 129.733 88.9195 129.452 88.3076 128.889C87.7201 128.301 87.4263 127.579 87.4263 126.723C87.4263 125.866 87.7201 125.156 88.3076 124.593C88.9195 124.005 89.6784 123.712 90.5841 123.712C91.4898 123.712 92.2364 124.005 92.8239 124.593C93.4358 125.156 93.7418 125.866 93.7418 126.723C93.7418 127.579 93.4358 128.301 92.8239 128.889C92.2364 129.452 91.4898 129.733 90.5841 129.733ZM93.1176 132.157V152.498H87.9771V132.157H93.1176ZM96.8746 142.328C96.8746 140.222 97.303 138.387 98.1597 136.82C99.0165 135.229 100.204 134.005 101.721 133.148C103.239 132.267 104.977 131.826 106.935 131.826C109.457 131.826 111.537 132.463 113.177 133.736C114.842 134.984 115.956 136.747 116.519 139.023H110.974C110.681 138.142 110.179 137.456 109.469 136.967C108.783 136.453 107.927 136.196 106.899 136.196C105.43 136.196 104.267 136.734 103.41 137.811C102.554 138.864 102.125 140.369 102.125 142.328C102.125 144.261 102.554 145.767 103.41 146.844C104.267 147.897 105.43 148.423 106.899 148.423C108.979 148.423 110.338 147.493 110.974 145.632H116.519C115.956 147.835 114.842 149.586 113.177 150.883C111.513 152.18 109.432 152.829 106.935 152.829C104.977 152.829 103.239 152.401 101.721 151.544C100.204 150.663 99.0165 149.439 98.1597 147.872C97.303 146.281 96.8746 144.433 96.8746 142.328ZM125.425 135.315C126.086 134.237 126.943 133.393 127.995 132.781C129.072 132.169 130.296 131.863 131.667 131.863V137.261H130.309C128.693 137.261 127.469 137.64 126.637 138.399C125.829 139.158 125.425 140.48 125.425 142.364V152.498H120.285V132.157H125.425V135.315ZM144.162 152.829C142.204 152.829 140.441 152.401 138.875 151.544C137.308 150.663 136.072 149.426 135.166 147.835C134.285 146.244 133.844 144.408 133.844 142.328C133.844 140.247 134.297 138.411 135.203 136.82C136.133 135.229 137.394 134.005 138.985 133.148C140.576 132.267 142.351 131.826 144.309 131.826C146.267 131.826 148.042 132.267 149.633 133.148C151.224 134.005 152.472 135.229 153.378 136.82C154.308 138.411 154.773 140.247 154.773 142.328C154.773 144.408 154.296 146.244 153.341 147.835C152.411 149.426 151.138 150.663 149.523 151.544C147.932 152.401 146.145 152.829 144.162 152.829ZM144.162 148.349C145.092 148.349 145.961 148.129 146.769 147.688C147.601 147.223 148.262 146.538 148.752 145.632C149.241 144.727 149.486 143.625 149.486 142.328C149.486 140.394 148.972 138.913 147.944 137.885C146.94 136.832 145.704 136.306 144.235 136.306C142.767 136.306 141.531 136.832 140.527 137.885C139.548 138.913 139.058 140.394 139.058 142.328C139.058 144.261 139.536 145.755 140.49 146.807C141.469 147.835 142.693 148.349 144.162 148.349Z" fill="black"/>
<path d="M193.952 135.384C193.952 136.515 193.685 137.581 193.152 138.584C192.619 139.587 191.765 140.408 190.592 141.048C189.419 141.667 187.915 141.976 186.08 141.976H182.048V151H178.4V128.76H186.08C187.787 128.76 189.227 129.059 190.4 129.656C191.595 130.232 192.48 131.021 193.056 132.024C193.653 133.027 193.952 134.147 193.952 135.384ZM186.08 139C187.467 139 188.501 138.691 189.184 138.072C189.867 137.432 190.208 136.536 190.208 135.384C190.208 132.952 188.832 131.736 186.08 131.736H182.048V139H186.08ZM196.215 142.104C196.215 140.333 196.578 138.765 197.303 137.4C198.05 136.035 199.053 134.979 200.311 134.232C201.591 133.464 202.999 133.08 204.535 133.08C205.922 133.08 207.127 133.357 208.151 133.912C209.197 134.445 210.029 135.117 210.647 135.928V133.368H214.327V151H210.647V148.376C210.029 149.208 209.186 149.901 208.119 150.456C207.053 151.011 205.837 151.288 204.471 151.288C202.957 151.288 201.57 150.904 200.311 150.136C199.053 149.347 198.05 148.259 197.303 146.872C196.578 145.464 196.215 143.875 196.215 142.104ZM210.647 142.168C210.647 140.952 210.391 139.896 209.879 139C209.389 138.104 208.738 137.421 207.927 136.952C207.117 136.483 206.242 136.248 205.303 136.248C204.365 136.248 203.49 136.483 202.679 136.952C201.869 137.4 201.207 138.072 200.695 138.968C200.205 139.843 199.959 140.888 199.959 142.104C199.959 143.32 200.205 144.387 200.695 145.304C201.207 146.221 201.869 146.925 202.679 147.416C203.511 147.885 204.386 148.12 205.303 148.12C206.242 148.12 207.117 147.885 207.927 147.416C208.738 146.947 209.389 146.264 209.879 145.368C210.391 144.451 210.647 143.384 210.647 142.168ZM234.991 133.368L224.175 159.288H220.399L223.983 150.712L217.039 133.368H221.103L226.063 146.808L231.215 133.368H234.991Z" fill="black"/>
</svg>
